<svg width="237" height="138" viewBox="0 0 237 138" fill="none" xmlns="http://www.w3.org/2000/svg">
<g clip-path="url(#clip0_102_186)">
<path d="M181.453 136.439C178.419 133.942 176.576 129.998 177.059 126.158C177.542 122.317 180.536 118.787 184.419 117.972C188.302 117.156 192.729 119.414 193.908 123.108C194.557 115.985 195.305 108.564 199.194 102.498C202.714 97.0062 208.812 93.0762 215.421 92.3731C222.03 91.6701 228.988 94.3255 233.109 99.4057C237.231 104.486 238.24 111.872 235.354 117.704C233.227 122.001 229.309 125.198 225.204 127.8C211.94 136.135 196.031 139.525 180.405 137.345L181.453 136.439Z" fill="#F2F2F2"/>
<path d="M226.574 94.4727C221.121 98.7985 216.119 103.637 211.639 108.917C204.628 117.152 198.955 126.386 194.817 136.296C194.514 137.019 195.719 137.333 196.019 136.618C202.789 120.513 213.598 106.318 227.456 95.3311C228.078 94.8376 227.191 93.9832 226.574 94.4727Z" fill="white"/>
<path d="M76.2941 135.761C80.4617 132.331 82.9931 126.913 82.3292 121.639C81.6654 116.364 77.5536 111.516 72.22 110.395C66.8865 109.275 60.8066 112.376 59.1866 117.45C58.2951 107.667 57.2677 97.4742 51.9272 89.143C47.0915 81.5993 38.7161 76.2015 29.6389 75.2359C20.5618 74.2702 11.0048 77.9174 5.34369 84.8952C-0.317388 91.8729 -1.70348 102.017 2.26139 110.028C5.18217 115.93 10.5633 120.321 16.2013 123.895C34.1887 135.294 56.502 140.048 77.7334 137.005" fill="#F2F2F2"/>
<path d="M14.3199 78.1196C21.8097 84.0611 28.6807 90.7062 34.8337 97.9588C40.9877 105.204 46.4056 113.013 51.0113 121.277C53.5857 125.913 55.8983 130.682 57.9389 135.564C58.3549 136.557 56.6994 136.989 56.288 136.007C52.6736 127.401 48.202 119.161 42.9372 111.405C37.698 103.677 31.7015 96.4623 25.0318 89.8621C21.2594 86.1308 17.2793 82.6043 13.1093 79.2986C12.2546 78.6208 13.4722 77.4473 14.3199 78.1196L14.3199 78.1196Z" fill="white"/>
<path d="M170.122 137.698H70.6914V38.3379C70.6914 17.1983 88.3499 0 110.055 0H130.759C152.464 0 170.122 17.1983 170.122 38.3379V137.698Z" fill="#F2F2F2"/>
<path d="M149.419 137.698H70.6914V38.3379C70.6697 30.2377 73.3033 22.3422 78.2088 15.8009C78.3897 15.5609 78.57 15.324 78.7561 15.0896C81.1288 12.0587 83.9525 9.38938 87.1339 7.16983C87.3136 7.04248 87.494 6.91734 87.6772 6.7922C90.3392 4.99799 93.2189 3.53126 96.2506 2.4254C96.4306 2.35894 96.6139 2.29235 96.7972 2.22848C99.5391 1.27549 102.381 0.6227 105.272 0.282157C105.451 0.258318 105.635 0.239664 105.819 0.22101C108.635 -0.0722865 111.476 -0.0722865 114.292 0.22101C114.476 0.239664 114.66 0.258316 114.841 0.282412C117.73 0.622977 120.572 1.27569 123.313 2.22849C123.496 2.29236 123.68 2.35894 123.86 2.42553C126.855 3.51745 129.7 4.96229 132.334 6.72782C132.517 6.85024 132.7 6.97538 132.881 7.10052C134.664 8.34027 136.339 9.72142 137.889 11.2299C139.131 12.4398 140.289 13.7295 141.355 15.0904C141.54 15.324 141.721 15.5609 141.901 15.8006C146.807 22.3419 149.441 30.2375 149.419 38.3379V137.698Z" fill="#CCCCCC"/>
<path d="M143.017 93.2578C145.424 93.2578 147.376 91.3573 147.376 89.0128C147.376 86.6684 145.424 84.7678 143.017 84.7678C140.61 84.7678 138.659 86.6684 138.659 89.0128C138.659 91.3573 140.61 93.2578 143.017 93.2578Z" fill="#6C63FF"/>
<path d="M161.977 134.722H158.637L157.048 122.176L161.978 122.176L161.977 134.722Z" fill="#FFB8B8"/>
<path d="M156.252 133.792H162.692V137.742H152.196C152.196 137.223 152.301 136.71 152.505 136.231C152.709 135.751 153.007 135.316 153.384 134.949C153.761 134.583 154.208 134.292 154.7 134.093C155.192 133.895 155.719 133.792 156.252 133.792Z" fill="#2F2E41"/>
<path d="M178.594 134.722H175.254L173.665 122.176L178.595 122.176L178.594 134.722Z" fill="#FFB8B8"/>
<path d="M172.869 133.792H179.31V137.742H168.813C168.813 137.223 168.918 136.71 169.122 136.231C169.326 135.751 169.625 135.316 170.001 134.949C170.378 134.583 170.825 134.292 171.317 134.093C171.809 133.895 172.336 133.792 172.869 133.792Z" fill="#2F2E41"/>
<path d="M145.223 89.8538C144.983 89.509 144.823 89.1171 144.755 88.7057C144.687 88.2943 144.713 87.8734 144.83 87.4727C144.947 87.0719 145.153 86.7011 145.433 86.3862C145.713 86.0714 146.061 85.8202 146.452 85.6504L157.805 55.1747L163.391 58.1439L150.429 87.2676C150.678 87.9257 150.671 88.6501 150.409 89.3034C150.146 89.9568 149.647 90.4937 149.005 90.8125C148.364 91.1313 147.624 91.2098 146.927 91.0331C146.23 90.8564 145.624 90.4368 145.223 89.8538Z" fill="#FFB8B8"/>
<path d="M176.888 95.5803C176.517 95.3731 176.197 95.0891 175.951 94.7483C175.705 94.4076 175.538 94.0184 175.463 93.6082C175.388 93.198 175.406 92.7768 175.516 92.3741C175.626 91.9715 175.825 91.5973 176.1 91.2778L172.583 59.0397L178.941 59.3225L180.402 91.033C180.923 91.518 181.242 92.1721 181.301 92.8713C181.359 93.5705 181.152 94.2663 180.719 94.8268C180.286 95.3873 179.657 95.7736 178.951 95.9125C178.245 96.0514 177.511 95.9332 176.888 95.5803Z" fill="#FFB8B8"/>
<path d="M166.746 49.5297C170.441 49.5297 173.437 46.6123 173.437 43.0134C173.437 39.4145 170.441 36.497 166.746 36.497C163.051 36.497 160.055 39.4145 160.055 43.0134C160.055 46.6123 163.051 49.5297 166.746 49.5297Z" fill="#FFB8B8"/>
<path d="M176.845 88.2484H156.674L156.698 88.0955C156.735 87.867 160.293 65.162 157.669 57.734C157.405 57.0041 157.428 56.205 157.734 55.4907C158.039 54.7764 158.605 54.1973 159.322 53.8648H159.322C163.074 52.1442 170.275 50.0254 176.353 55.1673C177.248 55.9364 177.946 56.8976 178.394 57.9749C178.841 59.0523 179.025 60.2162 178.93 61.3746L176.845 88.2484Z" fill="#6C63FF"/>
<path d="M160.548 68.5175L151.467 66.7231L155.724 56.8986C155.978 55.947 156.61 55.1327 157.481 54.6343C158.351 54.1358 159.389 53.9939 160.367 54.2398C161.344 54.4856 162.182 55.099 162.696 55.9455C163.21 56.7919 163.358 57.8024 163.108 58.7551L160.548 68.5175Z" fill="#6C63FF"/>
<path d="M172.179 71.8491L171.633 59.6603C171.219 57.3689 172.566 55.2029 174.637 54.8489C176.709 54.4961 178.732 56.0853 179.148 58.3934L181.2 69.7827L172.179 71.8491Z" fill="#6C63FF"/>
<path d="M176.174 86.7891C179.42 98.8282 179.774 114.135 178.899 130.831L174.54 130.301L166.64 98.4629L162.281 130.831L157.378 130.566C155.913 113.047 154.487 98.0078 156.833 88.1157L176.174 86.7891Z" fill="#2F2E41"/>
<path d="M171.155 48.0494C169.906 49.3444 167.588 48.6492 167.426 46.8801C167.413 46.7428 167.414 46.6046 167.428 46.4674C167.512 45.6838 167.977 44.9723 167.866 44.1449C167.841 43.939 167.762 43.7428 167.637 43.5748C166.642 42.2776 164.308 44.155 163.369 42.9807C162.793 42.2606 163.47 41.1269 163.028 40.3221C162.445 39.2599 160.718 39.7839 159.636 39.2022C158.431 38.5549 158.503 36.7546 159.296 35.6595C160.263 34.324 161.959 33.6114 163.634 33.5087C165.308 33.406 166.972 33.8469 168.535 34.4404C170.311 35.1146 172.073 36.0464 173.166 37.5678C174.496 39.4178 174.624 41.9051 173.959 44.0684C173.554 45.3844 172.174 46.992 171.155 48.0494Z" fill="#2F2E41"/>
<path d="M228.823 137.869H27.7011C27.6152 137.868 27.533 137.835 27.4724 137.776C27.4117 137.717 27.3777 137.636 27.3777 137.553C27.3777 137.469 27.4117 137.389 27.4724 137.33C27.533 137.27 27.6152 137.237 27.7011 137.237H228.823C228.908 137.237 228.991 137.27 229.051 137.33C229.112 137.389 229.146 137.469 229.146 137.553C229.146 137.636 229.112 137.717 229.051 137.776C228.991 137.835 228.908 137.868 228.823 137.869Z" fill="#3F3D56"/>
<path d="M127.762 108.911H92.3483C91.8819 108.914 91.4335 108.736 91.1016 108.417C90.7696 108.098 90.5812 107.664 90.5776 107.209V30.2233C90.5812 29.7691 90.7696 29.3348 91.1016 29.0157C91.4335 28.6966 91.8819 28.5188 92.3483 28.5212H127.762C128.228 28.5188 128.677 28.6966 129.009 29.0157C129.341 29.3348 129.529 29.7691 129.533 30.2233V107.209C129.529 107.664 129.341 108.098 129.009 108.417C128.677 108.736 128.228 108.914 127.762 108.911Z" fill="white"/>
<path d="M129.533 53.4315H90.5776V53.9621H129.533V53.4315Z" fill="#CCCCCC"/>
<path d="M129.669 83.7065H90.7138V84.2372H129.669V83.7065Z" fill="#CCCCCC"/>
<path d="M103.381 28.5212H102.836V109.177H103.381V28.5212Z" fill="#CCCCCC"/>
<path d="M117.002 28.5212H116.457V109.177H117.002V28.5212Z" fill="#CCCCCC"/>
</g>
<defs>
<clipPath id="clip0_102_186">
<rect width="237" height="138" fill="white"/>
</clipPath>
</defs>
</svg>
