<svg width="1699" height="2115" viewBox="0 0 1699 2115" fill="none" xmlns="http://www.w3.org/2000/svg">
<path d="M505.374 410.395C238.725 447.917 57.3544 152.432 0 0L1699 10.2599V2115H1509.24C921.668 2003.61 1020.58 1559.5 1143.48 1351.37C1215.26 1205.29 1345.04 853.328 1289.98 614.127C1221.16 315.125 838.685 363.493 505.374 410.395Z" fill="#18DB43" fill-opacity="0.56"/>
<path d="M505.374 410.395C238.725 447.917 57.3544 152.432 0 0L1699 10.2599V2115H1509.24C921.668 2003.61 1020.58 1559.5 1143.48 1351.37C1215.26 1205.29 1345.04 853.328 1289.98 614.127C1221.16 315.125 838.685 363.493 505.374 410.395Z" fill="url(#paint0_linear_120_290)" fill-opacity="0.5"/>
<defs>
<linearGradient id="paint0_linear_120_290" x1="849.5" y1="0" x2="849.5" y2="2115" gradientUnits="userSpaceOnUse">
<stop stop-color="#0099FF" stop-opacity="0"/>
<stop offset="1" stop-color="#0099FF"/>
</linearGradient>
</defs>
</svg>
